<?xml version="1.0" encoding="UTF-8"?>
<svg width="992px" height="992px" viewBox="0 0 992 992" version="1.1" xmlns="http://www.w3.org/2000/svg" xmlns:xlink="http://www.w3.org/1999/xlink">
    <!-- Generator: Sketch 59.1 (86144) - https://sketch.com -->
    <title>Sightglass-Logo-CMYK</title>
    <desc>Created with Sketch.</desc>
    <defs>
        <polygon id="path-1" points="0.228735632 0.434846743 991.568966 0.434846743 991.568966 992 0.228735632 992"></polygon>
    </defs>
    <g id="Desktop02" stroke="none" stroke-width="1" fill="none" fill-rule="evenodd">
        <g id="Sightglass-Logo-CMYK">
            <g id="Group-3">
                <mask id="mask-2" fill="white">
                    <use xlink:href="#path-1"></use>
                </mask>
                <g id="Clip-2"></g>
                <path d="M877.025785,484.790172 L601.426034,520.560613 C599.279732,520.831284 597.224923,519.859157 596.073621,518.05977 C594.92613,516.260383 594.922318,513.96159 596.062184,512.154579 L613.507088,484.546188 L371.226494,520.545364 C369.064943,520.865594 366.933889,519.882031 365.763525,518.044521 C364.596973,516.203199 364.623659,513.851034 365.832146,512.036398 L382.987318,486.330326 L115.946092,520.560613 C115.709732,520.591111 115.473372,520.60636 115.240824,520.60636 C112.507433,520.60636 110.140019,518.578238 109.781667,515.795287 C109.396628,512.775977 111.527682,510.0159 114.54318,509.634674 L393.58159,473.864234 C395.720268,473.582126 397.824636,474.588563 398.964502,476.422261 C400.100556,478.25977 400.062433,480.589061 398.861571,482.384636 L381.893199,507.820038 L623.773506,471.881858 C625.935057,471.573065 628.027989,472.522318 629.198352,474.325517 C630.372529,476.128716 630.387778,478.454195 629.240287,480.272644 L611.63908,508.125019 L875.607625,473.864234 C878.626935,473.471571 881.387011,475.598812 881.783487,478.618123 C882.168525,481.633621 880.041284,484.39751 877.025785,484.790172 Z M808.626207,647.592759 C811.157548,648.545824 813.570709,649.456954 815.800881,650.364272 C817.874751,651.210594 820.005805,652.037854 822.144483,652.880364 C843.660881,661.301648 870.430575,671.792989 870.430575,706.297759 C870.430575,736.224004 845.262031,759.677031 813.124674,759.677031 C783.156494,759.677031 756.954828,736.509923 753.478046,706.945843 C753.039636,703.160268 755.738716,699.736858 759.512854,699.298448 C763.340364,698.890536 766.714215,701.562931 767.160249,705.337069 C769.500977,725.275192 787.334732,745.899521 813.124674,745.899521 C837.538391,745.899521 856.66069,728.504176 856.66069,706.297759 C856.66069,681.186398 837.450709,673.660996 817.123736,665.700996 C814.927874,664.843238 812.743448,663.989291 810.60477,663.120096 C808.481341,662.254713 806.182548,661.381705 803.777011,660.482011 C784.353544,653.162471 755.00295,642.095479 755.00295,607.537337 C755.00295,577.386169 780.533659,553.76159 813.124674,553.76159 C843.512203,553.76159 869.340268,577.088812 871.94023,606.862567 C872.275709,610.655766 869.469885,613.991494 865.68431,614.326973 C861.910172,614.681513 858.551571,611.852816 858.223716,608.063429 C856.241341,585.338544 836.425211,567.535287 813.124674,567.535287 C788.257299,567.535287 768.776648,585.109808 768.776648,607.537337 C768.776648,630.727318 786.05,639.083793 808.626207,647.592759 Z M654.477452,695.242203 C657.37477,698.638927 660.352146,702.13477 663.401954,705.764042 C667.984291,711.20795 672.227337,716.175326 676.16159,720.765287 C703.426877,752.597663 717.10908,768.582471 717.10908,805.012433 C717.10908,841.213659 691.669866,868.509444 657.938985,868.509444 C624.261475,868.509444 598.87182,841.156475 598.87182,804.875192 C598.87182,801.074368 601.952126,797.990249 605.75295,797.990249 C609.561398,797.990249 612.641705,801.074368 612.641705,804.875192 C612.641705,833.768314 631.687759,854.743372 657.938985,854.743372 C683.820421,854.743372 703.343008,833.364215 703.343008,805.012433 C703.343008,773.668027 693.091839,761.701341 665.704559,729.720287 C661.743621,725.10364 657.470077,720.109579 652.853429,714.623736 C649.830307,711.021149 646.86818,707.54818 643.993736,704.17433 C618.992931,674.838985 599.241609,651.668065 599.241609,617.483525 C599.241609,580.493161 623.929808,553.651034 657.938985,553.651034 C687.491628,553.651034 717.410249,576.032816 717.410249,618.821628 C717.410249,622.626264 714.32613,625.710383 710.525307,625.710383 C706.724483,625.710383 703.640364,622.626264 703.640364,618.821628 C703.640364,585.07931 680.648621,567.42092 657.938985,567.42092 C631.489521,567.42092 613.015307,588.003314 613.015307,617.483525 C613.015307,646.593946 630.403027,666.997165 654.477452,695.242203 Z M552.061073,929.932586 C548.321245,930.523487 544.772031,927.980709 544.165881,924.22182 L517.712605,759.543602 L467.806303,759.543602 L441.356839,924.22182 C440.811686,927.599483 437.887682,930.012644 434.567203,930.012644 C434.201226,930.012644 433.835249,929.982146 433.46546,929.932586 C429.710383,929.322625 427.156169,925.792471 427.762318,922.041207 L453.861054,759.543602 L434.66251,759.543602 C430.857874,759.543602 427.773755,756.463295 427.773755,752.662471 C427.773755,748.857835 430.857874,745.773716 434.66251,745.773716 L456.072165,745.773716 L485.956475,559.712529 C486.494004,556.369176 489.376073,553.91408 492.753736,553.91408 C496.139023,553.91408 499.013467,556.369176 499.554808,559.712529 L557.771839,922.041207 C558.374176,925.792471 555.812337,929.322625 552.061073,929.932586 Z M371.131188,868.33408 L305.247701,868.33408 C301.446877,868.33408 298.362759,865.249962 298.362759,861.445326 L298.362759,560.799023 C298.362759,556.998199 301.446877,553.91408 305.247701,553.91408 C309.052337,553.91408 312.132644,556.998199 312.132644,560.799023 L312.132644,854.556571 L371.131188,854.556571 C374.935824,854.556571 378.019943,857.64069 378.019943,861.445326 C378.019943,865.249962 374.935824,868.33408 371.131188,868.33408 Z M178.753084,746.013889 C203.845383,746.013889 224.263851,722.984023 224.263851,694.674176 L224.263851,680.927165 L177.944885,680.927165 C174.140249,680.927165 171.059943,677.846858 171.059943,674.042222 C171.059943,670.241398 174.140249,667.15728 177.944885,667.15728 L231.148793,667.15728 C234.953429,667.15728 238.033736,670.241398 238.033736,674.042222 L238.033736,694.674176 C238.033736,730.574234 211.439406,759.779962 178.753084,759.779962 C146.070575,759.779962 119.480057,730.574234 119.480057,694.674176 L119.480057,619.008429 C119.480057,583.115996 146.070575,553.91408 178.753084,553.91408 C211.439406,553.91408 238.033736,583.115996 238.033736,619.008429 C238.033736,622.809253 234.953429,625.893372 231.148793,625.893372 C227.347969,625.893372 224.263851,622.809253 224.263851,619.008429 C224.263851,590.710019 203.845383,567.683966 178.753084,567.683966 C153.664598,567.683966 133.253755,590.710019 133.253755,619.008429 L133.253755,694.674176 C133.253755,722.984023 153.664598,746.013889 178.753084,746.013889 Z M183.304923,345.421552 C181.101437,344.559981 178.917011,343.69841 176.774521,342.825402 C174.643467,341.960019 172.33705,341.087011 169.923889,340.179693 C150.511858,332.860153 121.180326,321.804598 121.180326,287.25408 C121.180326,257.0991 146.707222,233.478333 179.298238,233.478333 C209.678142,233.478333 235.517644,256.805556 238.117605,286.57931 C238.449272,290.368697 235.643448,293.708238 231.854061,294.039904 C228.079923,294.360134 224.728946,291.565747 224.39728,287.77636 C222.414904,265.051475 202.602586,247.252031 179.298238,247.252031 C154.430862,247.252031 134.950211,264.822739 134.950211,287.25408 C134.950211,310.432625 152.215939,318.785287 174.784521,327.294253 C177.315862,328.25113 179.736648,329.166073 181.970632,330.073391 C184.055939,330.919713 186.18318,331.754598 188.333295,332.597107 C209.834444,341.022203 236.596513,351.509732 236.596513,386.006877 C236.596513,415.936935 211.427969,439.386149 179.298238,439.386149 C149.326245,439.386149 123.128391,416.219042 119.655421,386.647337 C119.213199,382.869387 121.91228,379.449789 125.694042,379.007567 C129.479617,378.569157 132.887778,381.264425 133.333812,385.042375 C135.67454,404.98431 153.508295,425.612452 179.298238,425.612452 C203.708142,425.612452 222.826628,408.217107 222.826628,386.006877 C222.826628,360.903142 203.631897,353.381552 183.304923,345.421552 Z M285.488755,141.347433 C281.687931,141.347433 278.603812,138.267126 278.603812,134.46249 C278.603812,130.657854 281.687931,127.577548 285.488755,127.577548 L371.329425,127.577548 C375.134061,127.577548 378.21818,130.657854 378.21818,134.46249 C378.21818,138.267126 375.134061,141.347433 371.329425,141.347433 L335.295939,141.347433 L335.295939,424.747069 L371.329425,424.747069 C375.134061,424.747069 378.21818,427.827375 378.21818,431.632011 C378.21818,435.432835 375.134061,438.516954 371.329425,438.516954 L285.488755,438.516954 C281.687931,438.516954 278.603812,435.432835 278.603812,431.632011 C278.603812,427.827375 281.687931,424.747069 285.488755,424.747069 L321.522241,424.747069 L321.522241,141.347433 L285.488755,141.347433 Z M433.476897,128.378123 C433.476897,92.4856897 460.067414,63.2837739 492.749923,63.2837739 C525.432433,63.2837739 552.02295,92.4856897 552.02295,128.378123 C552.02295,132.182759 548.938831,135.263065 545.134195,135.263065 C541.333372,135.263065 538.249253,132.182759 538.249253,128.378123 C538.249253,100.079713 517.83841,77.0574713 492.749923,77.0574713 C467.661437,77.0574713 447.246782,100.079713 447.246782,128.378123 L447.246782,374.291801 C447.246782,402.590211 467.661437,425.612452 492.749923,425.612452 C517.83841,425.612452 538.249253,402.590211 538.249253,374.291801 L538.249253,250.484828 L491.937912,250.484828 C488.133276,250.484828 485.049157,247.400709 485.049157,243.599885 C485.049157,239.795249 488.133276,236.714943 491.937912,236.714943 L545.134195,236.714943 C548.938831,236.714943 552.02295,239.795249 552.02295,243.599885 L552.02295,374.291801 C552.02295,410.180421 525.432433,439.386149 492.749923,439.386149 C460.067414,439.386149 433.476897,410.180421 433.476897,374.291801 L433.476897,128.378123 Z M608.798946,134.348123 C608.798946,130.543487 611.883065,127.46318 615.683889,127.46318 C619.488525,127.46318 622.572644,130.543487 622.572644,134.348123 L622.572644,236.684444 L694.647241,236.684444 L694.647241,134.46249 C694.647241,130.657854 697.727548,127.577548 701.535996,127.577548 C705.33682,127.577548 708.417126,130.657854 708.417126,134.46249 L708.417126,431.635824 C708.417126,435.44046 705.33682,438.520766 701.535996,438.520766 C697.727548,438.520766 694.647241,435.44046 694.647241,431.635824 L694.647241,250.458142 L622.572644,250.458142 L622.572644,431.52908 C622.572644,435.333716 619.488525,438.417835 615.683889,438.417835 C611.883065,438.417835 608.798946,435.333716 608.798946,431.52908 L608.798946,134.348123 Z M769.359923,236.798812 L855.192969,236.798812 C858.997605,236.798812 862.081724,239.882931 862.081724,243.683755 C862.081724,247.488391 858.997605,250.568697 855.192969,250.568697 L819.163295,250.568697 L819.163295,431.632011 C819.163295,435.432835 816.079176,438.516954 812.27454,438.516954 C808.469904,438.516954 805.389598,435.432835 805.389598,431.632011 L805.389598,250.568697 L769.359923,250.568697 C765.551475,250.568697 762.471169,247.488391 762.471169,243.683755 C762.471169,239.882931 765.551475,236.798812 769.359923,236.798812 Z M495.792107,0.434846743 C221.949808,0.434846743 0,222.403716 0,496.223142 C0,770.03113 221.949808,992 495.792107,992 C769.592471,992 991.568966,770.03113 991.568966,496.223142 C991.568966,222.403716 769.592471,0.434846743 495.792107,0.434846743 L495.792107,0.434846743 Z" id="Fill-1" fill="#000000" mask="url(#mask-2)"></path>
            </g>
            <polyline id="Fill-4" fill="#000000" points="470 746 515 746 492.496228 604 470 746"></polyline>
        </g>
    </g>
</svg>